<?xml version="1.0" encoding="utf-8" standalone="no"?>
<!DOCTYPE svg PUBLIC "-//W3C//DTD SVG 1.1//EN"
  "http://www.w3.org/Graphics/SVG/1.1/DTD/svg11.dtd">
<svg xmlns:xlink="http://www.w3.org/1999/xlink" width="720pt" height="432pt" viewBox="0 0 720 432" xmlns="http://www.w3.org/2000/svg" version="1.1">
 <metadata>
  <rdf:RDF xmlns:dc="http://purl.org/dc/elements/1.1/" xmlns:cc="http://creativecommons.org/ns#" xmlns:rdf="http://www.w3.org/1999/02/22-rdf-syntax-ns#">
   <cc:Work>
    <dc:type rdf:resource="http://purl.org/dc/dcmitype/StillImage"/>
    <dc:date>2026-03-17T12:52:37.080669</dc:date>
    <dc:format>image/svg+xml</dc:format>
    <dc:creator>
     <cc:Agent>
      <dc:title>Matplotlib v3.10.6, https://matplotlib.org/</dc:title>
     </cc:Agent>
    </dc:creator>
   </cc:Work>
  </rdf:RDF>
 </metadata>
 <defs>
  <style type="text/css">*{stroke-linejoin: round; stroke-linecap: butt}</style>
 </defs>
 <g id="figure_1">
  <g id="patch_1">
   <path d="M 0 432 
L 720 432 
L 720 0 
L 0 0 
z
" style="fill: #ffffff"/>
  </g>
  <g id="axes_1">
   <g id="patch_2">
    <path d="M 90 384.48 
L 648 384.48 
L 648 51.84 
L 90 51.84 
z
" style="fill: #ffffff"/>
   </g>
   <g id="FillBetweenPolyCollection_1">
    <defs>
     <path id="m66f6afa4f5" d="M 90 -180.539319 
L 90 -104.251178 
L 92.583333 -101.31739 
L 95.166667 -101.910238 
L 97.75 -102.715427 
L 100.333333 -102.813701 
L 102.916667 -101.786937 
L 105.5 -102.196059 
L 108.083333 -101.291368 
L 110.666667 -101.025805 
L 113.25 -100.822857 
L 115.833333 -101.253288 
L 118.416667 -100.452038 
L 121 -100.237058 
L 123.583333 -100.617002 
L 126.166667 -101.109827 
L 128.75 -100.586032 
L 131.333333 -100.668772 
L 133.916667 -100.522237 
L 136.5 -101.138534 
L 139.083333 -100.60432 
L 141.666667 -101.065163 
L 144.25 -100.545978 
L 146.833333 -101.43817 
L 149.416667 -100.544243 
L 152 -101.558951 
L 154.583333 -101.260905 
L 157.166667 -101.763678 
L 159.75 -100.048482 
L 162.333333 -100.137058 
L 164.916667 -99.768237 
L 167.5 -99.900856 
L 170.083333 -101.016099 
L 172.666667 -99.847758 
L 175.25 -100.370189 
L 177.833333 -99.487198 
L 180.416667 -100.495043 
L 183 -99.901063 
L 185.583333 -102.009203 
L 188.166667 -99.482607 
L 190.75 -101.520445 
L 193.333333 -99.419695 
L 195.916667 -101.357484 
L 198.5 -98.981032 
L 201.083333 -100.02675 
L 203.666667 -100.163528 
L 206.25 -99.825906 
L 208.833333 -98.870038 
L 211.416667 -99.448063 
L 214 -99.661495 
L 216.583333 -99.37882 
L 219.166667 -98.460792 
L 221.75 -99.181355 
L 224.333333 -98.791058 
L 226.916667 -99.367841 
L 229.5 -98.840815 
L 232.083333 -98.739485 
L 234.666667 -99.159445 
L 237.25 -98.738443 
L 239.833333 -99.021868 
L 242.416667 -98.131197 
L 245 -99.501598 
L 247.583333 -99.053932 
L 250.166667 -99.435957 
L 252.75 -98.829934 
L 255.333333 -99.840956 
L 257.916667 -98.390879 
L 260.5 -99.551577 
L 263.083333 -98.817882 
L 265.666667 -99.570587 
L 268.25 -98.662878 
L 270.833333 -100.583101 
L 273.416667 -99.078543 
L 276 -100.982906 
L 278.583333 -98.967362 
L 281.166667 -101.801582 
L 283.75 -99.075472 
L 286.333333 -100.228675 
L 288.916667 -98.978076 
L 291.5 -100.836243 
L 294.083333 -98.604272 
L 296.666667 -101.125093 
L 299.25 -98.246753 
L 301.833333 -99.410903 
L 304.416667 -98.642168 
L 307 -99.127969 
L 309.583333 -99.054895 
L 312.166667 -99.348692 
L 314.75 -98.545103 
L 317.333333 -99.468801 
L 319.916667 -98.383772 
L 322.5 -99.527194 
L 325.083333 -97.89918 
L 327.666667 -99.100906 
L 330.25 -97.313418 
L 332.833333 -98.535789 
L 335.416667 -97.746615 
L 338 -98.876084 
L 340.583333 -97.911591 
L 343.166667 -98.238142 
L 345.75 -97.915723 
L 348.333333 -98.157924 
L 350.916667 -97.414616 
L 353.5 -98.130426 
L 356.083333 -97.843797 
L 358.666667 -97.894435 
L 361.25 -97.12412 
L 363.833333 -97.982765 
L 366.416667 -97.946827 
L 369 -98.491499 
L 371.583333 -97.057703 
L 374.166667 -97.727513 
L 376.75 -97.297487 
L 379.333333 -97.6606 
L 381.916667 -97.32736 
L 384.5 -97.962075 
L 387.083333 -97.480426 
L 389.666667 -98.294807 
L 392.25 -97.386619 
L 394.833333 -97.927382 
L 397.416667 -97.488252 
L 400 -97.808389 
L 402.583333 -97.968954 
L 405.166667 -99.002321 
L 407.75 -98.31254 
L 410.333333 -97.976401 
L 412.916667 -97.72683 
L 415.5 -98.538934 
L 418.083333 -98.054256 
L 420.666667 -97.513434 
L 423.25 -97.931612 
L 425.833333 -96.977304 
L 428.416667 -97.388167 
L 431 -98.111368 
L 433.583333 -97.580277 
L 436.166667 -98.198853 
L 438.75 -97.976535 
L 441.333333 -97.26136 
L 443.916667 -97.905056 
L 446.5 -98.232487 
L 449.083333 -98.124382 
L 451.666667 -98.534324 
L 454.25 -97.212771 
L 456.833333 -97.31764 
L 459.416667 -97.520867 
L 462 -97.141496 
L 464.583333 -97.180778 
L 467.166667 -97.139597 
L 469.75 -96.856091 
L 472.333333 -97.181573 
L 474.916667 -96.788524 
L 477.5 -97.34295 
L 480.083333 -96.856941 
L 482.666667 -96.873977 
L 485.25 -97.008593 
L 487.833333 -97.02158 
L 490.416667 -97.350208 
L 493 -96.987394 
L 495.583333 -96.969299 
L 498.166667 -97.266535 
L 500.75 -96.821704 
L 503.333333 -96.957942 
L 505.916667 -97.083131 
L 508.5 -97.310547 
L 511.083333 -97.01167 
L 513.666667 -97.29553 
L 516.25 -96.931787 
L 518.833333 -97.427503 
L 521.416667 -97.588616 
L 524 -97.508011 
L 526.583333 -97.167555 
L 529.166667 -97.638905 
L 531.75 -98.566238 
L 534.333333 -98.154168 
L 536.916667 -97.811051 
L 539.5 -98.99079 
L 542.083333 -97.643444 
L 544.666667 -98.189967 
L 547.25 -97.441707 
L 549.833333 -99.642093 
L 552.416667 -97.797882 
L 555 -99.430379 
L 557.583333 -97.699085 
L 560.166667 -99.777509 
L 562.75 -97.969263 
L 565.333333 -99.860154 
L 567.916667 -98.534436 
L 570.5 -101.219247 
L 573.083333 -99.733132 
L 575.666667 -100.799404 
L 578.25 -99.576576 
L 580.833333 -100.097902 
L 583.416667 -98.83815 
L 586 -98.49756 
L 588.583333 -99.150847 
L 591.166667 -98.414566 
L 593.75 -99.191412 
L 596.333333 -99.022177 
L 598.916667 -99.134037 
L 601.5 -100.279489 
L 604.083333 -99.048779 
L 606.666667 -100.531772 
L 609.25 -99.287929 
L 611.833333 -101.297575 
L 614.416667 -99.5955 
L 617 -100.846716 
L 619.583333 -99.182143 
L 622.166667 -99.774938 
L 624.75 -99.453057 
L 627.333333 -100.141988 
L 629.916667 -100.79256 
L 632.5 -98.89852 
L 635.083333 -102.006912 
L 637.666667 -99.389916 
L 640.25 -101.139005 
L 642.833333 -100.676496 
L 645.416667 -99.997696 
L 648 -100.743197 
L 650.583333 -98.360453 
L 650.583333 -170.504939 
L 650.583333 -170.504939 
L 648 -175.570493 
L 645.416667 -172.743039 
L 642.833333 -174.406312 
L 640.25 -174.732345 
L 637.666667 -169.794059 
L 635.083333 -175.936021 
L 632.5 -169.491791 
L 629.916667 -173.378919 
L 627.333333 -172.126421 
L 624.75 -169.463673 
L 622.166667 -171.480545 
L 619.583333 -169.534135 
L 617 -173.368048 
L 614.416667 -169.590397 
L 611.833333 -175.359626 
L 609.25 -169.071121 
L 606.666667 -172.932868 
L 604.083333 -169.625337 
L 601.5 -172.328151 
L 598.916667 -170.117711 
L 596.333333 -168.782549 
L 593.75 -170.010655 
L 591.166667 -166.802123 
L 588.583333 -168.616529 
L 586 -167.471464 
L 583.416667 -167.505034 
L 580.833333 -174.166572 
L 578.25 -169.708053 
L 575.666667 -174.335812 
L 573.083333 -170.528327 
L 570.5 -175.664091 
L 567.916667 -167.79042 
L 565.333333 -172.591881 
L 562.75 -167.145163 
L 560.166667 -171.894619 
L 557.583333 -166.702235 
L 555 -170.373462 
L 552.416667 -165.808119 
L 549.833333 -170.421885 
L 547.25 -165.968572 
L 544.666667 -167.699269 
L 542.083333 -165.734617 
L 539.5 -168.291672 
L 536.916667 -167.204201 
L 534.333333 -166.79782 
L 531.75 -168.81634 
L 529.166667 -164.105069 
L 526.583333 -165.200572 
L 524 -165.242052 
L 521.416667 -166.031623 
L 518.833333 -165.23299 
L 516.25 -165.00814 
L 513.666667 -163.692943 
L 511.083333 -164.1566 
L 508.5 -164.155458 
L 505.916667 -164.69423 
L 503.333333 -163.881598 
L 500.75 -163.823343 
L 498.166667 -163.995513 
L 495.583333 -164.31206 
L 493 -163.419536 
L 490.416667 -165.354304 
L 487.833333 -163.351913 
L 485.25 -164.094668 
L 482.666667 -163.717385 
L 480.083333 -163.427927 
L 477.5 -163.556146 
L 474.916667 -163.924873 
L 472.333333 -164.345511 
L 469.75 -163.211212 
L 467.166667 -164.190023 
L 464.583333 -164.385375 
L 462 -164.469933 
L 459.416667 -164.474773 
L 456.833333 -164.338085 
L 454.25 -164.703894 
L 451.666667 -165.912579 
L 449.083333 -166.34794 
L 446.5 -165.596328 
L 443.916667 -166.03392 
L 441.333333 -164.137453 
L 438.75 -165.528424 
L 436.166667 -165.815729 
L 433.583333 -164.487832 
L 431 -165.732801 
L 428.416667 -164.145766 
L 425.833333 -164.198501 
L 423.25 -165.010553 
L 420.666667 -165.222555 
L 418.083333 -165.318368 
L 415.5 -166.707773 
L 412.916667 -165.147312 
L 410.333333 -165.022438 
L 407.75 -166.04726 
L 405.166667 -167.610424 
L 402.583333 -165.642692 
L 400 -165.380175 
L 397.416667 -163.644691 
L 394.833333 -165.672086 
L 392.25 -163.63846 
L 389.666667 -165.38851 
L 387.083333 -164.07486 
L 384.5 -165.487949 
L 381.916667 -163.748524 
L 379.333333 -164.623945 
L 376.75 -162.934342 
L 374.166667 -165.249581 
L 371.583333 -163.5789 
L 369 -165.877243 
L 366.416667 -164.396949 
L 363.833333 -164.904941 
L 361.25 -163.050375 
L 358.666667 -165.257055 
L 356.083333 -164.991555 
L 353.5 -164.508411 
L 350.916667 -164.738965 
L 348.333333 -165.456417 
L 345.75 -164.752888 
L 343.166667 -165.687716 
L 340.583333 -165.240439 
L 338 -166.068819 
L 335.416667 -164.220556 
L 332.833333 -166.1311 
L 330.25 -163.991204 
L 327.666667 -166.853002 
L 325.083333 -164.659546 
L 322.5 -167.067236 
L 319.916667 -165.267421 
L 317.333333 -168.077897 
L 314.75 -165.408989 
L 312.166667 -165.821599 
L 309.583333 -167.088829 
L 307 -166.885018 
L 304.416667 -166.405296 
L 301.833333 -167.829216 
L 299.25 -165.218283 
L 296.666667 -170.886725 
L 294.083333 -165.706917 
L 291.5 -171.035143 
L 288.916667 -166.166617 
L 286.333333 -170.175205 
L 283.75 -166.966876 
L 281.166667 -172.942304 
L 278.583333 -166.556519 
L 276 -171.475116 
L 273.416667 -167.324763 
L 270.833333 -169.860715 
L 268.25 -165.877327 
L 265.666667 -167.837667 
L 263.083333 -166.629584 
L 260.5 -167.396046 
L 257.916667 -165.201698 
L 255.333333 -168.431958 
L 252.75 -166.227026 
L 250.166667 -168.259812 
L 247.583333 -166.964994 
L 245 -168.026965 
L 242.416667 -165.577871 
L 239.833333 -166.884996 
L 237.25 -166.444642 
L 234.666667 -167.751755 
L 232.083333 -166.510852 
L 229.5 -166.258252 
L 226.916667 -167.317177 
L 224.333333 -166.52373 
L 221.75 -166.896747 
L 219.166667 -165.757936 
L 216.583333 -166.878883 
L 214 -167.852826 
L 211.416667 -167.856782 
L 208.833333 -167.16333 
L 206.25 -168.150116 
L 203.666667 -168.634347 
L 201.083333 -168.703552 
L 198.5 -166.614438 
L 195.916667 -172.483639 
L 193.333333 -167.863769 
L 190.75 -171.871387 
L 188.166667 -167.246855 
L 185.583333 -173.854927 
L 183 -167.893744 
L 180.416667 -169.976386 
L 177.833333 -167.479733 
L 175.25 -170.918254 
L 172.666667 -168.236578 
L 170.083333 -171.1824 
L 167.5 -168.854466 
L 164.916667 -168.439453 
L 162.333333 -169.820036 
L 159.75 -169.285321 
L 157.166667 -173.462478 
L 154.583333 -169.896001 
L 152 -173.001882 
L 149.416667 -169.596394 
L 146.833333 -172.228415 
L 144.25 -170.043766 
L 141.666667 -172.449633 
L 139.083333 -169.688769 
L 136.5 -171.297491 
L 133.916667 -169.249548 
L 131.333333 -170.779366 
L 128.75 -169.646596 
L 126.166667 -170.926979 
L 123.583333 -169.680119 
L 121 -169.692878 
L 118.416667 -169.386875 
L 115.833333 -171.455972 
L 113.25 -170.342136 
L 110.666667 -171.000902 
L 108.083333 -171.554756 
L 105.5 -173.699635 
L 102.916667 -172.720422 
L 100.333333 -175.689666 
L 97.75 -174.454626 
L 95.166667 -174.370103 
L 92.583333 -175.264605 
L 90 -180.539319 
z
" style="stroke: #0000ff; stroke-opacity: 0.2"/>
    </defs>
    <g clip-path="url(#pc4e88bae8e)">
     <use xlink:href="#m66f6afa4f5" x="0" y="432" style="fill: #0000ff; fill-opacity: 0.2; stroke: #0000ff; stroke-opacity: 0.2"/>
    </g>
   </g>
   <g id="matplotlib.axis_1">
    <g id="xtick_1">
     <g id="line2d_1">
      <defs>
       <path id="m4ff9f85579" d="M 0 0 
L 0 3.5 
" style="stroke: #000000; stroke-width: 0.8"/>
      </defs>
      <g>
       <use xlink:href="#m4ff9f85579" x="90" y="384.48" style="stroke: #000000; stroke-width: 0.8"/>
      </g>
     </g>
     <g id="text_1">
      <!-- 0 -->
      <g transform="translate(86.81875 399.078438) scale(0.1 -0.1)">
       <defs>
        <path id="DejaVuSans-30" d="M 2034 4250 
Q 1547 4250 1301 3770 
Q 1056 3291 1056 2328 
Q 1056 1369 1301 889 
Q 1547 409 2034 409 
Q 2525 409 2770 889 
Q 3016 1369 3016 2328 
Q 3016 3291 2770 3770 
Q 2525 4250 2034 4250 
z
M 2034 4750 
Q 2819 4750 3233 4129 
Q 3647 3509 3647 2328 
Q 3647 1150 3233 529 
Q 2819 -91 2034 -91 
Q 1250 -91 836 529 
Q 422 1150 422 2328 
Q 422 3509 836 4129 
Q 1250 4750 2034 4750 
z
" transform="scale(0.015625)"/>
       </defs>
       <use xlink:href="#DejaVuSans-30"/>
      </g>
     </g>
    </g>
    <g id="xtick_2">
     <g id="line2d_2">
      <g>
       <use xlink:href="#m4ff9f85579" x="169.97936" y="384.48" style="stroke: #000000; stroke-width: 0.8"/>
      </g>
     </g>
     <g id="text_2">
      <!-- 50 -->
      <g transform="translate(163.61686 399.078438) scale(0.1 -0.1)">
       <defs>
        <path id="DejaVuSans-35" d="M 691 4666 
L 3169 4666 
L 3169 4134 
L 1269 4134 
L 1269 2991 
Q 1406 3038 1543 3061 
Q 1681 3084 1819 3084 
Q 2600 3084 3056 2656 
Q 3513 2228 3513 1497 
Q 3513 744 3044 326 
Q 2575 -91 1722 -91 
Q 1428 -91 1123 -41 
Q 819 9 494 109 
L 494 744 
Q 775 591 1075 516 
Q 1375 441 1709 441 
Q 2250 441 2565 725 
Q 2881 1009 2881 1497 
Q 2881 1984 2565 2268 
Q 2250 2553 1709 2553 
Q 1456 2553 1204 2497 
Q 953 2441 691 2322 
L 691 4666 
z
" transform="scale(0.015625)"/>
       </defs>
       <use xlink:href="#DejaVuSans-35"/>
       <use xlink:href="#DejaVuSans-30" transform="translate(63.623047 0)"/>
      </g>
     </g>
    </g>
    <g id="xtick_3">
     <g id="line2d_3">
      <g>
       <use xlink:href="#m4ff9f85579" x="249.958719" y="384.48" style="stroke: #000000; stroke-width: 0.8"/>
      </g>
     </g>
     <g id="text_3">
      <!-- 100 -->
      <g transform="translate(240.414969 399.078438) scale(0.1 -0.1)">
       <defs>
        <path id="DejaVuSans-31" d="M 794 531 
L 1825 531 
L 1825 4091 
L 703 3866 
L 703 4441 
L 1819 4666 
L 2450 4666 
L 2450 531 
L 3481 531 
L 3481 0 
L 794 0 
L 794 531 
z
" transform="scale(0.015625)"/>
       </defs>
       <use xlink:href="#DejaVuSans-31"/>
       <use xlink:href="#DejaVuSans-30" transform="translate(63.623047 0)"/>
       <use xlink:href="#DejaVuSans-30" transform="translate(127.246094 0)"/>
      </g>
     </g>
    </g>
    <g id="xtick_4">
     <g id="line2d_4">
      <g>
       <use xlink:href="#m4ff9f85579" x="329.938079" y="384.48" style="stroke: #000000; stroke-width: 0.8"/>
      </g>
     </g>
     <g id="text_4">
      <!-- 150 -->
      <g transform="translate(320.394329 399.078438) scale(0.1 -0.1)">
       <use xlink:href="#DejaVuSans-31"/>
       <use xlink:href="#DejaVuSans-35" transform="translate(63.623047 0)"/>
       <use xlink:href="#DejaVuSans-30" transform="translate(127.246094 0)"/>
      </g>
     </g>
    </g>
    <g id="xtick_5">
     <g id="line2d_5">
      <g>
       <use xlink:href="#m4ff9f85579" x="409.917439" y="384.48" style="stroke: #000000; stroke-width: 0.8"/>
      </g>
     </g>
     <g id="text_5">
      <!-- 200 -->
      <g transform="translate(400.373689 399.078438) scale(0.1 -0.1)">
       <defs>
        <path id="DejaVuSans-32" d="M 1228 531 
L 3431 531 
L 3431 0 
L 469 0 
L 469 531 
Q 828 903 1448 1529 
Q 2069 2156 2228 2338 
Q 2531 2678 2651 2914 
Q 2772 3150 2772 3378 
Q 2772 3750 2511 3984 
Q 2250 4219 1831 4219 
Q 1534 4219 1204 4116 
Q 875 4013 500 3803 
L 500 4441 
Q 881 4594 1212 4672 
Q 1544 4750 1819 4750 
Q 2544 4750 2975 4387 
Q 3406 4025 3406 3419 
Q 3406 3131 3298 2873 
Q 3191 2616 2906 2266 
Q 2828 2175 2409 1742 
Q 1991 1309 1228 531 
z
" transform="scale(0.015625)"/>
       </defs>
       <use xlink:href="#DejaVuSans-32"/>
       <use xlink:href="#DejaVuSans-30" transform="translate(63.623047 0)"/>
       <use xlink:href="#DejaVuSans-30" transform="translate(127.246094 0)"/>
      </g>
     </g>
    </g>
    <g id="xtick_6">
     <g id="line2d_6">
      <g>
       <use xlink:href="#m4ff9f85579" x="489.896798" y="384.48" style="stroke: #000000; stroke-width: 0.8"/>
      </g>
     </g>
     <g id="text_6">
      <!-- 250 -->
      <g transform="translate(480.353048 399.078438) scale(0.1 -0.1)">
       <use xlink:href="#DejaVuSans-32"/>
       <use xlink:href="#DejaVuSans-35" transform="translate(63.623047 0)"/>
       <use xlink:href="#DejaVuSans-30" transform="translate(127.246094 0)"/>
      </g>
     </g>
    </g>
    <g id="xtick_7">
     <g id="line2d_7">
      <g>
       <use xlink:href="#m4ff9f85579" x="569.876158" y="384.48" style="stroke: #000000; stroke-width: 0.8"/>
      </g>
     </g>
     <g id="text_7">
      <!-- 300 -->
      <g transform="translate(560.332408 399.078438) scale(0.1 -0.1)">
       <defs>
        <path id="DejaVuSans-33" d="M 2597 2516 
Q 3050 2419 3304 2112 
Q 3559 1806 3559 1356 
Q 3559 666 3084 287 
Q 2609 -91 1734 -91 
Q 1441 -91 1130 -33 
Q 819 25 488 141 
L 488 750 
Q 750 597 1062 519 
Q 1375 441 1716 441 
Q 2309 441 2620 675 
Q 2931 909 2931 1356 
Q 2931 1769 2642 2001 
Q 2353 2234 1838 2234 
L 1294 2234 
L 1294 2753 
L 1863 2753 
Q 2328 2753 2575 2939 
Q 2822 3125 2822 3475 
Q 2822 3834 2567 4026 
Q 2313 4219 1838 4219 
Q 1578 4219 1281 4162 
Q 984 4106 628 3988 
L 628 4550 
Q 988 4650 1302 4700 
Q 1616 4750 1894 4750 
Q 2613 4750 3031 4423 
Q 3450 4097 3450 3541 
Q 3450 3153 3228 2886 
Q 3006 2619 2597 2516 
z
" transform="scale(0.015625)"/>
       </defs>
       <use xlink:href="#DejaVuSans-33"/>
       <use xlink:href="#DejaVuSans-30" transform="translate(63.623047 0)"/>
       <use xlink:href="#DejaVuSans-30" transform="translate(127.246094 0)"/>
      </g>
     </g>
    </g>
    <g id="text_8">
     <!-- Time (s) -->
     <g transform="translate(336.47375 417.315625) scale(0.16 -0.16)">
      <defs>
       <path id="DejaVuSans-54" d="M -19 4666 
L 3928 4666 
L 3928 4134 
L 2272 4134 
L 2272 0 
L 1638 0 
L 1638 4134 
L -19 4134 
L -19 4666 
z
" transform="scale(0.015625)"/>
       <path id="DejaVuSans-69" d="M 603 3500 
L 1178 3500 
L 1178 0 
L 603 0 
L 603 3500 
z
M 603 4863 
L 1178 4863 
L 1178 4134 
L 603 4134 
L 603 4863 
z
" transform="scale(0.015625)"/>
       <path id="DejaVuSans-6d" d="M 3328 2828 
Q 3544 3216 3844 3400 
Q 4144 3584 4550 3584 
Q 5097 3584 5394 3201 
Q 5691 2819 5691 2113 
L 5691 0 
L 5113 0 
L 5113 2094 
Q 5113 2597 4934 2840 
Q 4756 3084 4391 3084 
Q 3944 3084 3684 2787 
Q 3425 2491 3425 1978 
L 3425 0 
L 2847 0 
L 2847 2094 
Q 2847 2600 2669 2842 
Q 2491 3084 2119 3084 
Q 1678 3084 1418 2786 
Q 1159 2488 1159 1978 
L 1159 0 
L 581 0 
L 581 3500 
L 1159 3500 
L 1159 2956 
Q 1356 3278 1631 3431 
Q 1906 3584 2284 3584 
Q 2666 3584 2933 3390 
Q 3200 3197 3328 2828 
z
" transform="scale(0.015625)"/>
       <path id="DejaVuSans-65" d="M 3597 1894 
L 3597 1613 
L 953 1613 
Q 991 1019 1311 708 
Q 1631 397 2203 397 
Q 2534 397 2845 478 
Q 3156 559 3463 722 
L 3463 178 
Q 3153 47 2828 -22 
Q 2503 -91 2169 -91 
Q 1331 -91 842 396 
Q 353 884 353 1716 
Q 353 2575 817 3079 
Q 1281 3584 2069 3584 
Q 2775 3584 3186 3129 
Q 3597 2675 3597 1894 
z
M 3022 2063 
Q 3016 2534 2758 2815 
Q 2500 3097 2075 3097 
Q 1594 3097 1305 2825 
Q 1016 2553 972 2059 
L 3022 2063 
z
" transform="scale(0.015625)"/>
       <path id="DejaVuSans-20" transform="scale(0.015625)"/>
       <path id="DejaVuSans-28" d="M 1984 4856 
Q 1566 4138 1362 3434 
Q 1159 2731 1159 2009 
Q 1159 1288 1364 580 
Q 1569 -128 1984 -844 
L 1484 -844 
Q 1016 -109 783 600 
Q 550 1309 550 2009 
Q 550 2706 781 3412 
Q 1013 4119 1484 4856 
L 1984 4856 
z
" transform="scale(0.015625)"/>
       <path id="DejaVuSans-73" d="M 2834 3397 
L 2834 2853 
Q 2591 2978 2328 3040 
Q 2066 3103 1784 3103 
Q 1356 3103 1142 2972 
Q 928 2841 928 2578 
Q 928 2378 1081 2264 
Q 1234 2150 1697 2047 
L 1894 2003 
Q 2506 1872 2764 1633 
Q 3022 1394 3022 966 
Q 3022 478 2636 193 
Q 2250 -91 1575 -91 
Q 1294 -91 989 -36 
Q 684 19 347 128 
L 347 722 
Q 666 556 975 473 
Q 1284 391 1588 391 
Q 1994 391 2212 530 
Q 2431 669 2431 922 
Q 2431 1156 2273 1281 
Q 2116 1406 1581 1522 
L 1381 1569 
Q 847 1681 609 1914 
Q 372 2147 372 2553 
Q 372 3047 722 3315 
Q 1072 3584 1716 3584 
Q 2034 3584 2315 3537 
Q 2597 3491 2834 3397 
z
" transform="scale(0.015625)"/>
       <path id="DejaVuSans-29" d="M 513 4856 
L 1013 4856 
Q 1481 4119 1714 3412 
Q 1947 2706 1947 2009 
Q 1947 1309 1714 600 
Q 1481 -109 1013 -844 
L 513 -844 
Q 928 -128 1133 580 
Q 1338 1288 1338 2009 
Q 1338 2731 1133 3434 
Q 928 4138 513 4856 
z
" transform="scale(0.015625)"/>
      </defs>
      <use xlink:href="#DejaVuSans-54"/>
      <use xlink:href="#DejaVuSans-69" transform="translate(57.958984 0)"/>
      <use xlink:href="#DejaVuSans-6d" transform="translate(85.742188 0)"/>
      <use xlink:href="#DejaVuSans-65" transform="translate(183.154297 0)"/>
      <use xlink:href="#DejaVuSans-20" transform="translate(244.677734 0)"/>
      <use xlink:href="#DejaVuSans-28" transform="translate(276.464844 0)"/>
      <use xlink:href="#DejaVuSans-73" transform="translate(315.478516 0)"/>
      <use xlink:href="#DejaVuSans-29" transform="translate(367.578125 0)"/>
     </g>
    </g>
   </g>
   <g id="matplotlib.axis_2">
    <g id="ytick_1">
     <g id="line2d_8">
      <defs>
       <path id="m5b811e48de" d="M 0 0 
L -3.5 0 
" style="stroke: #000000; stroke-width: 0.8"/>
      </defs>
      <g>
       <use xlink:href="#m5b811e48de" x="90" y="353.869539" style="stroke: #000000; stroke-width: 0.8"/>
      </g>
     </g>
     <g id="text_9">
      <!-- 100 -->
      <g transform="translate(63.9125 357.668757) scale(0.1 -0.1)">
       <use xlink:href="#DejaVuSans-31"/>
       <use xlink:href="#DejaVuSans-30" transform="translate(63.623047 0)"/>
       <use xlink:href="#DejaVuSans-30" transform="translate(127.246094 0)"/>
      </g>
     </g>
    </g>
    <g id="ytick_2">
     <g id="line2d_9">
      <g>
       <use xlink:href="#m5b811e48de" x="90" y="312.969283" style="stroke: #000000; stroke-width: 0.8"/>
      </g>
     </g>
     <g id="text_10">
      <!-- 200 -->
      <g transform="translate(63.9125 316.768502) scale(0.1 -0.1)">
       <use xlink:href="#DejaVuSans-32"/>
       <use xlink:href="#DejaVuSans-30" transform="translate(63.623047 0)"/>
       <use xlink:href="#DejaVuSans-30" transform="translate(127.246094 0)"/>
      </g>
     </g>
    </g>
    <g id="ytick_3">
     <g id="line2d_10">
      <g>
       <use xlink:href="#m5b811e48de" x="90" y="272.069028" style="stroke: #000000; stroke-width: 0.8"/>
      </g>
     </g>
     <g id="text_11">
      <!-- 300 -->
      <g transform="translate(63.9125 275.868246) scale(0.1 -0.1)">
       <use xlink:href="#DejaVuSans-33"/>
       <use xlink:href="#DejaVuSans-30" transform="translate(63.623047 0)"/>
       <use xlink:href="#DejaVuSans-30" transform="translate(127.246094 0)"/>
      </g>
     </g>
    </g>
    <g id="ytick_4">
     <g id="line2d_11">
      <g>
       <use xlink:href="#m5b811e48de" x="90" y="231.168772" style="stroke: #000000; stroke-width: 0.8"/>
      </g>
     </g>
     <g id="text_12">
      <!-- 400 -->
      <g transform="translate(63.9125 234.967991) scale(0.1 -0.1)">
       <defs>
        <path id="DejaVuSans-34" d="M 2419 4116 
L 825 1625 
L 2419 1625 
L 2419 4116 
z
M 2253 4666 
L 3047 4666 
L 3047 1625 
L 3713 1625 
L 3713 1100 
L 3047 1100 
L 3047 0 
L 2419 0 
L 2419 1100 
L 313 1100 
L 313 1709 
L 2253 4666 
z
" transform="scale(0.015625)"/>
       </defs>
       <use xlink:href="#DejaVuSans-34"/>
       <use xlink:href="#DejaVuSans-30" transform="translate(63.623047 0)"/>
       <use xlink:href="#DejaVuSans-30" transform="translate(127.246094 0)"/>
      </g>
     </g>
    </g>
    <g id="ytick_5">
     <g id="line2d_12">
      <g>
       <use xlink:href="#m5b811e48de" x="90" y="190.268516" style="stroke: #000000; stroke-width: 0.8"/>
      </g>
     </g>
     <g id="text_13">
      <!-- 500 -->
      <g transform="translate(63.9125 194.067735) scale(0.1 -0.1)">
       <use xlink:href="#DejaVuSans-35"/>
       <use xlink:href="#DejaVuSans-30" transform="translate(63.623047 0)"/>
       <use xlink:href="#DejaVuSans-30" transform="translate(127.246094 0)"/>
      </g>
     </g>
    </g>
    <g id="ytick_6">
     <g id="line2d_13">
      <g>
       <use xlink:href="#m5b811e48de" x="90" y="149.368261" style="stroke: #000000; stroke-width: 0.8"/>
      </g>
     </g>
     <g id="text_14">
      <!-- 600 -->
      <g transform="translate(63.9125 153.16748) scale(0.1 -0.1)">
       <defs>
        <path id="DejaVuSans-36" d="M 2113 2584 
Q 1688 2584 1439 2293 
Q 1191 2003 1191 1497 
Q 1191 994 1439 701 
Q 1688 409 2113 409 
Q 2538 409 2786 701 
Q 3034 994 3034 1497 
Q 3034 2003 2786 2293 
Q 2538 2584 2113 2584 
z
M 3366 4563 
L 3366 3988 
Q 3128 4100 2886 4159 
Q 2644 4219 2406 4219 
Q 1781 4219 1451 3797 
Q 1122 3375 1075 2522 
Q 1259 2794 1537 2939 
Q 1816 3084 2150 3084 
Q 2853 3084 3261 2657 
Q 3669 2231 3669 1497 
Q 3669 778 3244 343 
Q 2819 -91 2113 -91 
Q 1303 -91 875 529 
Q 447 1150 447 2328 
Q 447 3434 972 4092 
Q 1497 4750 2381 4750 
Q 2619 4750 2861 4703 
Q 3103 4656 3366 4563 
z
" transform="scale(0.015625)"/>
       </defs>
       <use xlink:href="#DejaVuSans-36"/>
       <use xlink:href="#DejaVuSans-30" transform="translate(63.623047 0)"/>
       <use xlink:href="#DejaVuSans-30" transform="translate(127.246094 0)"/>
      </g>
     </g>
    </g>
    <g id="ytick_7">
     <g id="line2d_14">
      <g>
       <use xlink:href="#m5b811e48de" x="90" y="108.468005" style="stroke: #000000; stroke-width: 0.8"/>
      </g>
     </g>
     <g id="text_15">
      <!-- 700 -->
      <g transform="translate(63.9125 112.267224) scale(0.1 -0.1)">
       <defs>
        <path id="DejaVuSans-37" d="M 525 4666 
L 3525 4666 
L 3525 4397 
L 1831 0 
L 1172 0 
L 2766 4134 
L 525 4134 
L 525 4666 
z
" transform="scale(0.015625)"/>
       </defs>
       <use xlink:href="#DejaVuSans-37"/>
       <use xlink:href="#DejaVuSans-30" transform="translate(63.623047 0)"/>
       <use xlink:href="#DejaVuSans-30" transform="translate(127.246094 0)"/>
      </g>
     </g>
    </g>
    <g id="ytick_8">
     <g id="line2d_15">
      <g>
       <use xlink:href="#m5b811e48de" x="90" y="67.56775" style="stroke: #000000; stroke-width: 0.8"/>
      </g>
     </g>
     <g id="text_16">
      <!-- 800 -->
      <g transform="translate(63.9125 71.366968) scale(0.1 -0.1)">
       <defs>
        <path id="DejaVuSans-38" d="M 2034 2216 
Q 1584 2216 1326 1975 
Q 1069 1734 1069 1313 
Q 1069 891 1326 650 
Q 1584 409 2034 409 
Q 2484 409 2743 651 
Q 3003 894 3003 1313 
Q 3003 1734 2745 1975 
Q 2488 2216 2034 2216 
z
M 1403 2484 
Q 997 2584 770 2862 
Q 544 3141 544 3541 
Q 544 4100 942 4425 
Q 1341 4750 2034 4750 
Q 2731 4750 3128 4425 
Q 3525 4100 3525 3541 
Q 3525 3141 3298 2862 
Q 3072 2584 2669 2484 
Q 3125 2378 3379 2068 
Q 3634 1759 3634 1313 
Q 3634 634 3220 271 
Q 2806 -91 2034 -91 
Q 1263 -91 848 271 
Q 434 634 434 1313 
Q 434 1759 690 2068 
Q 947 2378 1403 2484 
z
M 1172 3481 
Q 1172 3119 1398 2916 
Q 1625 2713 2034 2713 
Q 2441 2713 2670 2916 
Q 2900 3119 2900 3481 
Q 2900 3844 2670 4047 
Q 2441 4250 2034 4250 
Q 1625 4250 1398 4047 
Q 1172 3844 1172 3481 
z
" transform="scale(0.015625)"/>
       </defs>
       <use xlink:href="#DejaVuSans-38"/>
       <use xlink:href="#DejaVuSans-30" transform="translate(63.623047 0)"/>
       <use xlink:href="#DejaVuSans-30" transform="translate(127.246094 0)"/>
      </g>
     </g>
    </g>
    <g id="text_17">
     <!-- RMSE -->
     <g transform="translate(56.585 240.755) rotate(-90) scale(0.16 -0.16)">
      <defs>
       <path id="DejaVuSans-52" d="M 2841 2188 
Q 3044 2119 3236 1894 
Q 3428 1669 3622 1275 
L 4263 0 
L 3584 0 
L 2988 1197 
Q 2756 1666 2539 1819 
Q 2322 1972 1947 1972 
L 1259 1972 
L 1259 0 
L 628 0 
L 628 4666 
L 2053 4666 
Q 2853 4666 3247 4331 
Q 3641 3997 3641 3322 
Q 3641 2881 3436 2590 
Q 3231 2300 2841 2188 
z
M 1259 4147 
L 1259 2491 
L 2053 2491 
Q 2509 2491 2742 2702 
Q 2975 2913 2975 3322 
Q 2975 3731 2742 3939 
Q 2509 4147 2053 4147 
L 1259 4147 
z
" transform="scale(0.015625)"/>
       <path id="DejaVuSans-4d" d="M 628 4666 
L 1569 4666 
L 2759 1491 
L 3956 4666 
L 4897 4666 
L 4897 0 
L 4281 0 
L 4281 4097 
L 3078 897 
L 2444 897 
L 1241 4097 
L 1241 0 
L 628 0 
L 628 4666 
z
" transform="scale(0.015625)"/>
       <path id="DejaVuSans-53" d="M 3425 4513 
L 3425 3897 
Q 3066 4069 2747 4153 
Q 2428 4238 2131 4238 
Q 1616 4238 1336 4038 
Q 1056 3838 1056 3469 
Q 1056 3159 1242 3001 
Q 1428 2844 1947 2747 
L 2328 2669 
Q 3034 2534 3370 2195 
Q 3706 1856 3706 1288 
Q 3706 609 3251 259 
Q 2797 -91 1919 -91 
Q 1588 -91 1214 -16 
Q 841 59 441 206 
L 441 856 
Q 825 641 1194 531 
Q 1563 422 1919 422 
Q 2459 422 2753 634 
Q 3047 847 3047 1241 
Q 3047 1584 2836 1778 
Q 2625 1972 2144 2069 
L 1759 2144 
Q 1053 2284 737 2584 
Q 422 2884 422 3419 
Q 422 4038 858 4394 
Q 1294 4750 2059 4750 
Q 2388 4750 2728 4690 
Q 3069 4631 3425 4513 
z
" transform="scale(0.015625)"/>
       <path id="DejaVuSans-45" d="M 628 4666 
L 3578 4666 
L 3578 4134 
L 1259 4134 
L 1259 2753 
L 3481 2753 
L 3481 2222 
L 1259 2222 
L 1259 531 
L 3634 531 
L 3634 0 
L 628 0 
L 628 4666 
z
" transform="scale(0.015625)"/>
      </defs>
      <use xlink:href="#DejaVuSans-52"/>
      <use xlink:href="#DejaVuSans-4d" transform="translate(69.482422 0)"/>
      <use xlink:href="#DejaVuSans-53" transform="translate(155.761719 0)"/>
      <use xlink:href="#DejaVuSans-45" transform="translate(219.238281 0)"/>
     </g>
    </g>
   </g>
   <g id="line2d_16">
    <path d="M 90 297.634352 
L 92.583333 301.938783 
L 95.166667 301.38732 
L 100.333333 299.858179 
L 102.916667 301.972447 
L 105.5 301.363087 
L 108.083333 302.743186 
L 110.666667 302.983563 
L 113.25 303.579799 
L 115.833333 302.69648 
L 118.416667 304.011824 
L 121 303.938337 
L 123.583333 303.443598 
L 126.166667 303.084226 
L 128.75 303.774633 
L 131.333333 303.825842 
L 133.916667 304.028406 
L 136.5 302.934357 
L 139.083333 303.621419 
L 141.666667 302.457597 
L 144.25 303.882734 
L 146.833333 302.116652 
L 149.416667 303.880959 
L 152 302.226547 
L 154.583333 303.47415 
L 157.166667 301.54787 
L 159.75 303.913003 
L 164.916667 304.841456 
L 167.5 304.611429 
L 170.083333 302.914477 
L 172.666667 304.979454 
L 175.25 303.751882 
L 177.833333 305.444977 
L 180.416667 303.759864 
L 183 304.986828 
L 185.583333 301.36759 
L 188.166667 305.475948 
L 190.75 302.399957 
L 193.333333 305.172092 
L 195.916667 302.474794 
L 198.5 305.925207 
L 201.083333 304.801842 
L 203.666667 304.604967 
L 206.25 304.702468 
L 208.833333 305.849786 
L 211.416667 305.221866 
L 214 304.940118 
L 216.583333 305.6517 
L 219.166667 306.951286 
L 221.75 305.464658 
L 224.333333 306.332556 
L 226.916667 305.701983 
L 229.5 306.223031 
L 232.083333 306.298649 
L 234.666667 305.495195 
L 237.25 306.415815 
L 239.833333 305.975758 
L 242.416667 307.057709 
L 245 305.263087 
L 247.583333 306.236234 
L 250.166667 305.186296 
L 252.75 306.324895 
L 255.333333 304.838863 
L 257.916667 307.193576 
L 260.5 305.178919 
L 263.083333 306.347531 
L 265.666667 305.102871 
L 268.25 306.539688 
L 270.833333 303.593004 
L 273.416667 305.646926 
L 276 303.037301 
L 278.583333 306.204733 
L 281.166667 301.972178 
L 283.75 305.835111 
L 286.333333 303.91954 
L 288.916667 306.461708 
L 291.5 303.234397 
L 294.083333 306.777534 
L 296.666667 302.963951 
L 299.25 307.044107 
L 301.833333 305.408824 
L 304.416667 306.307976 
L 307 305.762601 
L 309.583333 306.139766 
L 312.166667 306.16706 
L 314.75 306.859499 
L 317.333333 305.335422 
L 319.916667 306.913401 
L 322.5 305.920608 
L 325.083333 307.230856 
L 327.666667 305.86448 
L 330.25 308.057464 
L 332.833333 306.666337 
L 335.416667 308.049442 
L 338 305.996934 
L 340.583333 307.322822 
L 343.166667 307.268564 
L 345.75 307.711672 
L 348.333333 307.220783 
L 350.916667 307.895657 
L 353.5 307.477046 
L 356.083333 307.462393 
L 358.666667 307.114045 
L 361.25 308.863237 
L 363.833333 307.562066 
L 366.416667 307.995792 
L 369 306.81375 
L 371.583333 308.575517 
L 374.166667 307.430661 
L 376.75 308.43114 
L 379.333333 307.830212 
L 381.916667 308.302566 
L 384.5 307.510232 
L 387.083333 308.279577 
L 389.666667 306.987655 
L 392.25 307.912183 
L 394.833333 307.015358 
L 397.416667 308.193347 
L 400 307.551057 
L 402.583333 307.470403 
L 405.166667 305.750584 
L 407.75 307.006106 
L 410.333333 307.248318 
L 412.916667 307.31919 
L 415.5 306.248379 
L 418.083333 307.071083 
L 420.666667 307.657851 
L 423.25 307.445571 
L 425.833333 308.847357 
L 428.416667 308.283053 
L 431 306.936589 
L 433.583333 307.86591 
L 436.166667 307.110841 
L 438.75 307.284746 
L 441.333333 308.239545 
L 443.916667 307.283407 
L 446.5 307.229801 
L 449.083333 306.644918 
L 451.666667 306.618135 
L 454.25 308.104308 
L 456.833333 308.109984 
L 459.416667 307.93162 
L 464.583333 308.49822 
L 467.166667 308.140019 
L 469.75 308.794472 
L 472.333333 308.511545 
L 474.916667 308.664365 
L 477.5 308.519521 
L 480.083333 309.020214 
L 482.666667 308.783513 
L 485.25 308.691897 
L 487.833333 308.437756 
L 490.416667 307.778519 
L 493 308.576915 
L 498.166667 308.63561 
L 500.75 308.465799 
L 503.333333 308.567388 
L 511.083333 308.480918 
L 513.666667 308.58436 
L 518.833333 307.528325 
L 521.416667 307.756853 
L 524 307.791746 
L 526.583333 308.068904 
L 529.166667 307.864031 
L 531.75 305.797419 
L 534.333333 306.632227 
L 536.916667 307.290254 
L 539.5 305.47327 
L 542.083333 307.658463 
L 544.666667 306.437649 
L 547.25 307.74649 
L 549.833333 304.343798 
L 552.416667 307.293708 
L 555 304.880127 
L 557.583333 307.044828 
L 560.166667 303.940378 
L 562.75 306.665554 
L 565.333333 303.739852 
L 567.916667 306.52265 
L 570.5 301.845438 
L 573.083333 304.450371 
L 575.666667 302.599646 
L 578.25 304.974231 
L 580.833333 302.901998 
L 583.416667 305.902456 
L 586 306.486915 
L 588.583333 305.365949 
L 591.166667 306.617408 
L 593.75 304.877965 
L 596.333333 305.798193 
L 598.916667 304.706241 
L 601.5 303.302058 
L 604.083333 304.898429 
L 606.666667 302.779 
L 609.25 305.40541 
L 611.833333 301.497097 
L 614.416667 304.875422 
L 617 302.679564 
L 619.583333 304.8387 
L 622.166667 303.807073 
L 624.75 304.996589 
L 627.333333 303.496967 
L 629.916667 302.676409 
L 632.5 305.366364 
L 635.083333 300.588787 
L 637.666667 304.690302 
L 640.25 301.742729 
L 645.416667 303.680748 
L 648 301.828345 
L 650.583333 305.332195 
L 650.583333 305.332195 
" clip-path="url(#pc4e88bae8e)" style="fill: none; stroke: #000000; stroke-width: 1.5; stroke-linecap: square"/>
   </g>
   <g id="line2d_17">
    <path d="M 90 366.07167 
L 92.583333 367.561473 
L 95.166667 366.882811 
L 97.75 366.320793 
L 100.333333 366.474498 
L 102.916667 366.842713 
L 105.5 366.703538 
L 108.083333 366.725271 
L 110.666667 367.17031 
L 113.25 367.201716 
L 115.833333 366.789062 
L 118.416667 367.527788 
L 121 367.566296 
L 123.583333 367.125701 
L 126.166667 367.375222 
L 128.75 367.324326 
L 131.333333 367.55747 
L 133.916667 367.188406 
L 136.5 367.638951 
L 141.666667 367.434168 
L 144.25 367.917206 
L 146.833333 367.503674 
L 152 367.173151 
L 157.166667 366.489339 
L 159.75 367.594015 
L 162.333333 367.794618 
L 164.916667 367.680927 
L 167.5 367.843532 
L 170.083333 367.153206 
L 172.666667 368.182935 
L 175.25 367.598411 
L 177.833333 368.278773 
L 180.416667 367.024402 
L 183 367.718072 
L 185.583333 366.947019 
L 188.166667 367.550385 
L 190.75 366.917179 
L 193.333333 367.846956 
L 195.916667 367.34758 
L 198.5 368.26034 
L 203.666667 367.60503 
L 206.25 367.816286 
L 208.833333 368.31096 
L 211.416667 368.006947 
L 214 367.556229 
L 216.583333 367.999719 
L 219.166667 368.83099 
L 221.75 367.962067 
L 224.333333 368.358319 
L 226.916667 367.734798 
L 229.5 368.249621 
L 232.083333 368.517413 
L 234.666667 368.04651 
L 237.25 367.89135 
L 239.833333 368.11139 
L 242.416667 368.641982 
L 245 367.986544 
L 247.583333 368.474875 
L 250.166667 368.409971 
L 252.75 368.225117 
L 255.333333 367.746438 
L 257.916667 368.037587 
L 260.5 367.979459 
L 263.083333 368.186383 
L 265.666667 367.849501 
L 268.25 368.553473 
L 270.833333 367.690951 
L 273.416667 367.840116 
L 276 367.472276 
L 278.583333 368.629414 
L 281.166667 367.075907 
L 283.75 368.207903 
L 286.333333 367.386435 
L 288.916667 367.993724 
L 291.5 367.474907 
L 294.083333 368.299344 
L 296.666667 367.181341 
L 299.25 368.584562 
L 301.833333 367.859331 
L 304.416667 368.185436 
L 307 368.138733 
L 309.583333 367.784801 
L 314.75 368.195809 
L 317.333333 367.935492 
L 319.916667 368.264159 
L 322.5 367.909801 
L 325.083333 368.423486 
L 327.666667 368.176086 
L 330.25 369.062526 
L 332.833333 368.236102 
L 335.416667 368.805819 
L 338 368.121215 
L 340.583333 368.459409 
L 343.166667 368.073318 
L 345.75 368.503266 
L 348.333333 368.583212 
L 350.916667 368.977401 
L 353.5 368.834676 
L 356.083333 368.510583 
L 358.666667 368.889887 
L 361.25 368.980492 
L 363.833333 368.331368 
L 366.416667 368.322116 
L 369 368.137286 
L 371.583333 368.953294 
L 374.166667 368.423909 
L 376.75 368.731372 
L 379.333333 368.494716 
L 381.916667 368.976767 
L 384.5 368.683243 
L 387.083333 369.029788 
L 389.666667 368.605619 
L 392.25 368.630278 
L 394.833333 368.474214 
L 397.416667 368.713463 
L 400 368.582012 
L 402.583333 368.824638 
L 405.166667 367.980077 
L 407.75 368.882409 
L 410.333333 368.657872 
L 412.916667 368.828239 
L 415.5 368.830461 
L 418.083333 368.378534 
L 420.666667 368.852664 
L 423.25 368.717965 
L 425.833333 368.895002 
L 431 368.220875 
L 433.583333 369.060084 
L 436.166667 368.720134 
L 438.75 368.74494 
L 441.333333 369.011584 
L 443.916667 368.539586 
L 446.5 368.28577 
L 449.083333 368.241152 
L 451.666667 368.436098 
L 454.25 368.804278 
L 456.833333 369.0248 
L 459.416667 368.836989 
L 464.583333 368.939533 
L 467.166667 369.210849 
L 469.75 369.36 
L 472.333333 368.961516 
L 474.916667 369.162873 
L 477.5 368.727622 
L 480.083333 368.579785 
L 482.666667 369.096708 
L 487.833333 368.852196 
L 490.416667 369.017984 
L 498.166667 368.723988 
L 500.75 369.194867 
L 503.333333 368.717841 
L 505.916667 368.88296 
L 508.5 368.916306 
L 511.083333 369.070208 
L 513.666667 369.005321 
L 516.25 368.816434 
L 518.833333 368.841449 
L 521.416667 369.001895 
L 524 368.711397 
L 526.583333 368.753068 
L 529.166667 368.969696 
L 531.75 368.428223 
L 534.333333 368.507963 
L 536.916667 368.998333 
L 539.5 368.038625 
L 542.083333 368.762344 
L 544.666667 368.426269 
L 547.25 368.916899 
L 549.833333 367.579063 
L 552.416667 368.679824 
L 555 367.411912 
L 557.583333 368.655808 
L 560.166667 367.651526 
L 562.75 368.747282 
L 565.333333 367.457905 
L 567.916667 368.260951 
L 570.5 367.530021 
L 573.083333 367.933845 
L 575.666667 367.49776 
L 578.25 367.815914 
L 580.833333 367.417492 
L 583.416667 368.37151 
L 596.333333 367.88093 
L 598.916667 368.102333 
L 601.5 367.723333 
L 604.083333 368.232206 
L 606.666667 367.071821 
L 609.25 367.829418 
L 611.833333 367.028687 
L 614.416667 367.474647 
L 617 367.698656 
L 619.583333 368.293181 
L 622.166667 368.029532 
L 627.333333 367.808495 
L 629.916667 367.286271 
L 632.5 368.152183 
L 635.083333 367.057983 
L 637.666667 367.653419 
L 642.833333 367.482918 
L 645.416667 367.565622 
L 648 367.439473 
L 650.583333 368.556991 
L 650.583333 368.556991 
" clip-path="url(#pc4e88bae8e)" style="fill: none; stroke-dasharray: 5.55,2.4; stroke-dashoffset: 0; stroke: #000000; stroke-width: 1.5"/>
   </g>
   <g id="line2d_18">
    <path d="M 90 66.96 
L 92.583333 85.547953 
L 95.166667 84.743486 
L 97.75 82.622766 
L 100.333333 81.012441 
L 102.916667 88.198651 
L 105.5 91.070344 
L 108.083333 89.273226 
L 113.25 94.711343 
L 115.833333 86.567945 
L 118.416667 88.252972 
L 121 99.3133 
L 123.583333 92.315397 
L 126.166667 90.650509 
L 128.75 92.713027 
L 131.333333 90.179994 
L 133.916667 94.087911 
L 136.5 93.089582 
L 139.083333 94.904163 
L 141.666667 86.176183 
L 144.25 96.103057 
L 146.833333 87.904965 
L 149.416667 91.01806 
L 152 92.707967 
L 154.583333 93.005257 
L 157.166667 87.209291 
L 159.75 94.368124 
L 162.333333 89.246825 
L 164.916667 91.744689 
L 167.5 96.061718 
L 170.083333 89.929106 
L 172.666667 92.348187 
L 175.25 94.115141 
L 177.833333 94.663405 
L 180.416667 88.189639 
L 183 97.162674 
L 185.583333 82.248468 
L 188.166667 92.769988 
L 190.75 91.543123 
L 193.333333 93.21043 
L 195.916667 85.63236 
L 198.5 99.262138 
L 201.083333 95.010863 
L 203.666667 90.235171 
L 206.25 94.972119 
L 208.833333 93.522017 
L 211.416667 93.711209 
L 214 96.620656 
L 216.583333 97.771785 
L 219.166667 96.06862 
L 221.75 93.845757 
L 224.333333 95.591841 
L 226.916667 89.906391 
L 229.5 95.576464 
L 232.083333 95.944836 
L 234.666667 91.574462 
L 237.25 91.398572 
L 239.833333 95.581881 
L 245 90.66924 
L 247.583333 97.504555 
L 250.166667 88.000096 
L 252.75 95.464071 
L 255.333333 94.908669 
L 257.916667 101.555568 
L 260.5 88.688802 
L 263.083333 92.248325 
L 265.666667 93.529559 
L 268.25 99.392495 
L 270.833333 87.664174 
L 273.416667 95.27764 
L 276 89.891715 
L 278.583333 95.575083 
L 281.166667 86.027809 
L 283.75 95.17195 
L 286.333333 92.111218 
L 288.916667 93.730213 
L 291.5 89.619059 
L 294.083333 99.025488 
L 296.666667 89.148484 
L 299.25 92.191885 
L 301.833333 93.079307 
L 304.416667 97.330292 
L 307 96.59893 
L 309.583333 93.988034 
L 312.166667 101.206011 
L 314.75 94.964837 
L 317.333333 97.608613 
L 319.916667 96.568153 
L 322.5 93.534429 
L 325.083333 97.82947 
L 327.666667 101.001192 
L 330.25 97.150742 
L 332.833333 94.415685 
L 335.416667 101.27986 
L 338 100.387187 
L 340.583333 97.697346 
L 343.166667 96.510547 
L 345.75 92.892307 
L 348.333333 94.666858 
L 350.916667 103.561482 
L 353.5 101.277119 
L 356.083333 96.654554 
L 358.666667 93.900315 
L 361.25 104.972094 
L 363.833333 99.225022 
L 366.416667 93.954948 
L 369 96.043651 
L 371.583333 97.69112 
L 374.166667 96.184868 
L 376.75 101.834473 
L 379.333333 102.792511 
L 381.916667 96.318887 
L 384.5 97.259286 
L 387.083333 105.147338 
L 389.666667 100.363848 
L 392.25 91.36753 
L 394.833333 95.853856 
L 397.416667 94.787334 
L 400 94.221883 
L 402.583333 98.181391 
L 405.166667 93.696036 
L 407.75 96.780892 
L 410.333333 99.129417 
L 412.916667 94.484616 
L 415.5 92.611612 
L 418.083333 97.614697 
L 420.666667 94.582728 
L 423.25 99.26214 
L 425.833333 98.920524 
L 428.416667 105.911732 
L 431 96.555561 
L 433.583333 95.361326 
L 436.166667 99.494428 
L 438.75 97.197965 
L 441.333333 100.067918 
L 443.916667 95.011646 
L 446.5 94.731336 
L 449.083333 96.721738 
L 451.666667 97.531603 
L 454.25 98.474169 
L 456.833333 97.589391 
L 459.416667 97.482215 
L 462 103.119513 
L 464.583333 102.902957 
L 467.166667 102.070555 
L 469.75 100.295962 
L 472.333333 99.354325 
L 474.916667 100.819568 
L 477.5 101.718422 
L 480.083333 103.779392 
L 482.666667 98.847843 
L 485.25 102.085264 
L 487.833333 108.919289 
L 490.416667 96.079606 
L 493 100.52373 
L 495.583333 103.351439 
L 498.166667 100.748591 
L 500.75 97.211456 
L 503.333333 103.135477 
L 505.916667 98.288872 
L 508.5 100.435199 
L 511.083333 104.98549 
L 513.666667 103.12529 
L 516.25 99.62151 
L 518.833333 101.600934 
L 521.416667 97.325102 
L 524 100.394261 
L 526.583333 98.290554 
L 529.166667 105.50425 
L 531.75 90.356656 
L 534.333333 97.413186 
L 536.916667 88.952068 
L 539.5 94.636669 
L 542.083333 90.225982 
L 544.666667 94.711892 
L 547.25 92.986537 
L 549.833333 88.172756 
L 552.416667 94.957036 
L 555 89.167309 
L 557.583333 92.540022 
L 560.166667 87.178666 
L 562.75 95.53449 
L 565.333333 85.028624 
L 567.916667 89.875477 
L 570.5 73.900135 
L 573.083333 91.323367 
L 575.666667 82.253266 
L 578.25 90.839638 
L 580.833333 69.074207 
L 583.416667 93.758417 
L 586 92.669458 
L 588.583333 97.392663 
L 591.166667 99.997873 
L 593.75 89.880816 
L 596.333333 98.189624 
L 598.916667 83.331393 
L 601.5 84.603785 
L 604.083333 92.160763 
L 606.666667 86.60414 
L 609.25 91.140554 
L 611.833333 79.321428 
L 614.416667 92.82354 
L 617 83.556969 
L 619.583333 93.072062 
L 622.166667 89.323735 
L 624.75 95.715945 
L 627.333333 86.481761 
L 629.916667 85.537066 
L 632.5 90.89832 
L 635.083333 79.753667 
L 637.666667 92.572597 
L 640.25 78.900406 
L 642.833333 85.541807 
L 645.416667 85.539106 
L 648 79.836226 
L 650.583333 91.843816 
L 650.583333 91.843816 
" clip-path="url(#pc4e88bae8e)" style="fill: none; stroke-dasharray: 5.55,2.4; stroke-dashoffset: 0; stroke: #000000; stroke-width: 1.5"/>
   </g>
   <g id="patch_3">
    <path d="M 90 384.48 
L 90 51.84 
" style="fill: none; stroke: #000000; stroke-width: 0.8; stroke-linejoin: miter; stroke-linecap: square"/>
   </g>
   <g id="patch_4">
    <path d="M 648 384.48 
L 648 51.84 
" style="fill: none; stroke: #000000; stroke-width: 0.8; stroke-linejoin: miter; stroke-linecap: square"/>
   </g>
   <g id="patch_5">
    <path d="M 90 384.48 
L 648 384.48 
" style="fill: none; stroke: #000000; stroke-width: 0.8; stroke-linejoin: miter; stroke-linecap: square"/>
   </g>
   <g id="patch_6">
    <path d="M 90 51.84 
L 648 51.84 
" style="fill: none; stroke: #000000; stroke-width: 0.8; stroke-linejoin: miter; stroke-linecap: square"/>
   </g>
   <g id="text_18">
    <!-- Root mean squared error of T2* and S0 fit across voxels -->
    <g transform="translate(89.2125 45.84) scale(0.2 -0.2)">
     <defs>
      <path id="DejaVuSans-6f" d="M 1959 3097 
Q 1497 3097 1228 2736 
Q 959 2375 959 1747 
Q 959 1119 1226 758 
Q 1494 397 1959 397 
Q 2419 397 2687 759 
Q 2956 1122 2956 1747 
Q 2956 2369 2687 2733 
Q 2419 3097 1959 3097 
z
M 1959 3584 
Q 2709 3584 3137 3096 
Q 3566 2609 3566 1747 
Q 3566 888 3137 398 
Q 2709 -91 1959 -91 
Q 1206 -91 779 398 
Q 353 888 353 1747 
Q 353 2609 779 3096 
Q 1206 3584 1959 3584 
z
" transform="scale(0.015625)"/>
      <path id="DejaVuSans-74" d="M 1172 4494 
L 1172 3500 
L 2356 3500 
L 2356 3053 
L 1172 3053 
L 1172 1153 
Q 1172 725 1289 603 
Q 1406 481 1766 481 
L 2356 481 
L 2356 0 
L 1766 0 
Q 1100 0 847 248 
Q 594 497 594 1153 
L 594 3053 
L 172 3053 
L 172 3500 
L 594 3500 
L 594 4494 
L 1172 4494 
z
" transform="scale(0.015625)"/>
      <path id="DejaVuSans-61" d="M 2194 1759 
Q 1497 1759 1228 1600 
Q 959 1441 959 1056 
Q 959 750 1161 570 
Q 1363 391 1709 391 
Q 2188 391 2477 730 
Q 2766 1069 2766 1631 
L 2766 1759 
L 2194 1759 
z
M 3341 1997 
L 3341 0 
L 2766 0 
L 2766 531 
Q 2569 213 2275 61 
Q 1981 -91 1556 -91 
Q 1019 -91 701 211 
Q 384 513 384 1019 
Q 384 1609 779 1909 
Q 1175 2209 1959 2209 
L 2766 2209 
L 2766 2266 
Q 2766 2663 2505 2880 
Q 2244 3097 1772 3097 
Q 1472 3097 1187 3025 
Q 903 2953 641 2809 
L 641 3341 
Q 956 3463 1253 3523 
Q 1550 3584 1831 3584 
Q 2591 3584 2966 3190 
Q 3341 2797 3341 1997 
z
" transform="scale(0.015625)"/>
      <path id="DejaVuSans-6e" d="M 3513 2113 
L 3513 0 
L 2938 0 
L 2938 2094 
Q 2938 2591 2744 2837 
Q 2550 3084 2163 3084 
Q 1697 3084 1428 2787 
Q 1159 2491 1159 1978 
L 1159 0 
L 581 0 
L 581 3500 
L 1159 3500 
L 1159 2956 
Q 1366 3272 1645 3428 
Q 1925 3584 2291 3584 
Q 2894 3584 3203 3211 
Q 3513 2838 3513 2113 
z
" transform="scale(0.015625)"/>
      <path id="DejaVuSans-71" d="M 947 1747 
Q 947 1113 1208 752 
Q 1469 391 1925 391 
Q 2381 391 2643 752 
Q 2906 1113 2906 1747 
Q 2906 2381 2643 2742 
Q 2381 3103 1925 3103 
Q 1469 3103 1208 2742 
Q 947 2381 947 1747 
z
M 2906 525 
Q 2725 213 2448 61 
Q 2172 -91 1784 -91 
Q 1150 -91 751 415 
Q 353 922 353 1747 
Q 353 2572 751 3078 
Q 1150 3584 1784 3584 
Q 2172 3584 2448 3432 
Q 2725 3281 2906 2969 
L 2906 3500 
L 3481 3500 
L 3481 -1331 
L 2906 -1331 
L 2906 525 
z
" transform="scale(0.015625)"/>
      <path id="DejaVuSans-75" d="M 544 1381 
L 544 3500 
L 1119 3500 
L 1119 1403 
Q 1119 906 1312 657 
Q 1506 409 1894 409 
Q 2359 409 2629 706 
Q 2900 1003 2900 1516 
L 2900 3500 
L 3475 3500 
L 3475 0 
L 2900 0 
L 2900 538 
Q 2691 219 2414 64 
Q 2138 -91 1772 -91 
Q 1169 -91 856 284 
Q 544 659 544 1381 
z
M 1991 3584 
L 1991 3584 
z
" transform="scale(0.015625)"/>
      <path id="DejaVuSans-72" d="M 2631 2963 
Q 2534 3019 2420 3045 
Q 2306 3072 2169 3072 
Q 1681 3072 1420 2755 
Q 1159 2438 1159 1844 
L 1159 0 
L 581 0 
L 581 3500 
L 1159 3500 
L 1159 2956 
Q 1341 3275 1631 3429 
Q 1922 3584 2338 3584 
Q 2397 3584 2469 3576 
Q 2541 3569 2628 3553 
L 2631 2963 
z
" transform="scale(0.015625)"/>
      <path id="DejaVuSans-64" d="M 2906 2969 
L 2906 4863 
L 3481 4863 
L 3481 0 
L 2906 0 
L 2906 525 
Q 2725 213 2448 61 
Q 2172 -91 1784 -91 
Q 1150 -91 751 415 
Q 353 922 353 1747 
Q 353 2572 751 3078 
Q 1150 3584 1784 3584 
Q 2172 3584 2448 3432 
Q 2725 3281 2906 2969 
z
M 947 1747 
Q 947 1113 1208 752 
Q 1469 391 1925 391 
Q 2381 391 2643 752 
Q 2906 1113 2906 1747 
Q 2906 2381 2643 2742 
Q 2381 3103 1925 3103 
Q 1469 3103 1208 2742 
Q 947 2381 947 1747 
z
" transform="scale(0.015625)"/>
      <path id="DejaVuSans-66" d="M 2375 4863 
L 2375 4384 
L 1825 4384 
Q 1516 4384 1395 4259 
Q 1275 4134 1275 3809 
L 1275 3500 
L 2222 3500 
L 2222 3053 
L 1275 3053 
L 1275 0 
L 697 0 
L 697 3053 
L 147 3053 
L 147 3500 
L 697 3500 
L 697 3744 
Q 697 4328 969 4595 
Q 1241 4863 1831 4863 
L 2375 4863 
z
" transform="scale(0.015625)"/>
      <path id="DejaVuSans-2a" d="M 3009 3897 
L 1888 3291 
L 3009 2681 
L 2828 2375 
L 1778 3009 
L 1778 1831 
L 1422 1831 
L 1422 3009 
L 372 2375 
L 191 2681 
L 1313 3291 
L 191 3897 
L 372 4206 
L 1422 3572 
L 1422 4750 
L 1778 4750 
L 1778 3572 
L 2828 4206 
L 3009 3897 
z
" transform="scale(0.015625)"/>
      <path id="DejaVuSans-63" d="M 3122 3366 
L 3122 2828 
Q 2878 2963 2633 3030 
Q 2388 3097 2138 3097 
Q 1578 3097 1268 2742 
Q 959 2388 959 1747 
Q 959 1106 1268 751 
Q 1578 397 2138 397 
Q 2388 397 2633 464 
Q 2878 531 3122 666 
L 3122 134 
Q 2881 22 2623 -34 
Q 2366 -91 2075 -91 
Q 1284 -91 818 406 
Q 353 903 353 1747 
Q 353 2603 823 3093 
Q 1294 3584 2113 3584 
Q 2378 3584 2631 3529 
Q 2884 3475 3122 3366 
z
" transform="scale(0.015625)"/>
      <path id="DejaVuSans-76" d="M 191 3500 
L 800 3500 
L 1894 563 
L 2988 3500 
L 3597 3500 
L 2284 0 
L 1503 0 
L 191 3500 
z
" transform="scale(0.015625)"/>
      <path id="DejaVuSans-78" d="M 3513 3500 
L 2247 1797 
L 3578 0 
L 2900 0 
L 1881 1375 
L 863 0 
L 184 0 
L 1544 1831 
L 300 3500 
L 978 3500 
L 1906 2253 
L 2834 3500 
L 3513 3500 
z
" transform="scale(0.015625)"/>
      <path id="DejaVuSans-6c" d="M 603 4863 
L 1178 4863 
L 1178 0 
L 603 0 
L 603 4863 
z
" transform="scale(0.015625)"/>
     </defs>
     <use xlink:href="#DejaVuSans-52"/>
     <use xlink:href="#DejaVuSans-6f" transform="translate(64.982422 0)"/>
     <use xlink:href="#DejaVuSans-6f" transform="translate(126.164062 0)"/>
     <use xlink:href="#DejaVuSans-74" transform="translate(187.345703 0)"/>
     <use xlink:href="#DejaVuSans-20" transform="translate(226.554688 0)"/>
     <use xlink:href="#DejaVuSans-6d" transform="translate(258.341797 0)"/>
     <use xlink:href="#DejaVuSans-65" transform="translate(355.753906 0)"/>
     <use xlink:href="#DejaVuSans-61" transform="translate(417.277344 0)"/>
     <use xlink:href="#DejaVuSans-6e" transform="translate(478.556641 0)"/>
     <use xlink:href="#DejaVuSans-20" transform="translate(541.935547 0)"/>
     <use xlink:href="#DejaVuSans-73" transform="translate(573.722656 0)"/>
     <use xlink:href="#DejaVuSans-71" transform="translate(625.822266 0)"/>
     <use xlink:href="#DejaVuSans-75" transform="translate(689.298828 0)"/>
     <use xlink:href="#DejaVuSans-61" transform="translate(752.677734 0)"/>
     <use xlink:href="#DejaVuSans-72" transform="translate(813.957031 0)"/>
     <use xlink:href="#DejaVuSans-65" transform="translate(852.820312 0)"/>
     <use xlink:href="#DejaVuSans-64" transform="translate(914.34375 0)"/>
     <use xlink:href="#DejaVuSans-20" transform="translate(977.820312 0)"/>
     <use xlink:href="#DejaVuSans-65" transform="translate(1009.607422 0)"/>
     <use xlink:href="#DejaVuSans-72" transform="translate(1071.130859 0)"/>
     <use xlink:href="#DejaVuSans-72" transform="translate(1110.494141 0)"/>
     <use xlink:href="#DejaVuSans-6f" transform="translate(1149.357422 0)"/>
     <use xlink:href="#DejaVuSans-72" transform="translate(1210.539062 0)"/>
     <use xlink:href="#DejaVuSans-20" transform="translate(1251.652344 0)"/>
     <use xlink:href="#DejaVuSans-6f" transform="translate(1283.439453 0)"/>
     <use xlink:href="#DejaVuSans-66" transform="translate(1344.621094 0)"/>
     <use xlink:href="#DejaVuSans-20" transform="translate(1379.826172 0)"/>
     <use xlink:href="#DejaVuSans-54" transform="translate(1411.613281 0)"/>
     <use xlink:href="#DejaVuSans-32" transform="translate(1472.697266 0)"/>
     <use xlink:href="#DejaVuSans-2a" transform="translate(1536.320312 0)"/>
     <use xlink:href="#DejaVuSans-20" transform="translate(1586.320312 0)"/>
     <use xlink:href="#DejaVuSans-61" transform="translate(1618.107422 0)"/>
     <use xlink:href="#DejaVuSans-6e" transform="translate(1679.386719 0)"/>
     <use xlink:href="#DejaVuSans-64" transform="translate(1742.765625 0)"/>
     <use xlink:href="#DejaVuSans-20" transform="translate(1806.242188 0)"/>
     <use xlink:href="#DejaVuSans-53" transform="translate(1838.029297 0)"/>
     <use xlink:href="#DejaVuSans-30" transform="translate(1901.505859 0)"/>
     <use xlink:href="#DejaVuSans-20" transform="translate(1965.128906 0)"/>
     <use xlink:href="#DejaVuSans-66" transform="translate(1996.916016 0)"/>
     <use xlink:href="#DejaVuSans-69" transform="translate(2032.121094 0)"/>
     <use xlink:href="#DejaVuSans-74" transform="translate(2059.904297 0)"/>
     <use xlink:href="#DejaVuSans-20" transform="translate(2099.113281 0)"/>
     <use xlink:href="#DejaVuSans-61" transform="translate(2130.900391 0)"/>
     <use xlink:href="#DejaVuSans-63" transform="translate(2192.179688 0)"/>
     <use xlink:href="#DejaVuSans-72" transform="translate(2247.160156 0)"/>
     <use xlink:href="#DejaVuSans-6f" transform="translate(2286.023438 0)"/>
     <use xlink:href="#DejaVuSans-73" transform="translate(2347.205078 0)"/>
     <use xlink:href="#DejaVuSans-73" transform="translate(2399.304688 0)"/>
     <use xlink:href="#DejaVuSans-20" transform="translate(2451.404297 0)"/>
     <use xlink:href="#DejaVuSans-76" transform="translate(2483.191406 0)"/>
     <use xlink:href="#DejaVuSans-6f" transform="translate(2542.371094 0)"/>
     <use xlink:href="#DejaVuSans-78" transform="translate(2600.427734 0)"/>
     <use xlink:href="#DejaVuSans-65" transform="translate(2656.482422 0)"/>
     <use xlink:href="#DejaVuSans-6c" transform="translate(2718.005859 0)"/>
     <use xlink:href="#DejaVuSans-73" transform="translate(2745.789062 0)"/>
    </g>
   </g>
   <g id="legend_1">
    <g id="patch_7">
     <path d="M 483.404688 241.677188 
L 641 241.677188 
Q 643 241.677188 643 239.677188 
L 643 196.642812 
Q 643 194.642812 641 194.642812 
L 483.404688 194.642812 
Q 481.404688 194.642812 481.404688 196.642812 
L 481.404688 239.677188 
Q 481.404688 241.677188 483.404688 241.677188 
z
" style="fill: #ffffff; opacity: 0.8; stroke: #cccccc; stroke-linejoin: miter"/>
    </g>
    <g id="line2d_19">
     <path d="M 485.404688 202.74125 
L 495.404688 202.74125 
L 505.404688 202.74125 
" style="fill: none; stroke: #000000; stroke-width: 1.5; stroke-linecap: square"/>
    </g>
    <g id="text_19">
     <!-- Median -->
     <g transform="translate(513.404688 206.24125) scale(0.1 -0.1)">
      <use xlink:href="#DejaVuSans-4d"/>
      <use xlink:href="#DejaVuSans-65" transform="translate(86.279297 0)"/>
      <use xlink:href="#DejaVuSans-64" transform="translate(147.802734 0)"/>
      <use xlink:href="#DejaVuSans-69" transform="translate(211.279297 0)"/>
      <use xlink:href="#DejaVuSans-61" transform="translate(239.0625 0)"/>
      <use xlink:href="#DejaVuSans-6e" transform="translate(300.341797 0)"/>
     </g>
    </g>
    <g id="patch_8">
     <path d="M 485.404688 220.919375 
L 505.404688 220.919375 
L 505.404688 213.919375 
L 485.404688 213.919375 
z
" style="fill: #0000ff; fill-opacity: 0.2; stroke: #0000ff; stroke-opacity: 0.2; stroke-linejoin: miter"/>
    </g>
    <g id="text_20">
     <!-- 25th-75th percentiles -->
     <g transform="translate(513.404688 220.919375) scale(0.1 -0.1)">
      <defs>
       <path id="DejaVuSans-68" d="M 3513 2113 
L 3513 0 
L 2938 0 
L 2938 2094 
Q 2938 2591 2744 2837 
Q 2550 3084 2163 3084 
Q 1697 3084 1428 2787 
Q 1159 2491 1159 1978 
L 1159 0 
L 581 0 
L 581 4863 
L 1159 4863 
L 1159 2956 
Q 1366 3272 1645 3428 
Q 1925 3584 2291 3584 
Q 2894 3584 3203 3211 
Q 3513 2838 3513 2113 
z
" transform="scale(0.015625)"/>
       <path id="DejaVuSans-2d" d="M 313 2009 
L 1997 2009 
L 1997 1497 
L 313 1497 
L 313 2009 
z
" transform="scale(0.015625)"/>
       <path id="DejaVuSans-70" d="M 1159 525 
L 1159 -1331 
L 581 -1331 
L 581 3500 
L 1159 3500 
L 1159 2969 
Q 1341 3281 1617 3432 
Q 1894 3584 2278 3584 
Q 2916 3584 3314 3078 
Q 3713 2572 3713 1747 
Q 3713 922 3314 415 
Q 2916 -91 2278 -91 
Q 1894 -91 1617 61 
Q 1341 213 1159 525 
z
M 3116 1747 
Q 3116 2381 2855 2742 
Q 2594 3103 2138 3103 
Q 1681 3103 1420 2742 
Q 1159 2381 1159 1747 
Q 1159 1113 1420 752 
Q 1681 391 2138 391 
Q 2594 391 2855 752 
Q 3116 1113 3116 1747 
z
" transform="scale(0.015625)"/>
      </defs>
      <use xlink:href="#DejaVuSans-32"/>
      <use xlink:href="#DejaVuSans-35" transform="translate(63.623047 0)"/>
      <use xlink:href="#DejaVuSans-74" transform="translate(127.246094 0)"/>
      <use xlink:href="#DejaVuSans-68" transform="translate(166.455078 0)"/>
      <use xlink:href="#DejaVuSans-2d" transform="translate(229.833984 0)"/>
      <use xlink:href="#DejaVuSans-37" transform="translate(265.917969 0)"/>
      <use xlink:href="#DejaVuSans-35" transform="translate(329.541016 0)"/>
      <use xlink:href="#DejaVuSans-74" transform="translate(393.164062 0)"/>
      <use xlink:href="#DejaVuSans-68" transform="translate(432.373047 0)"/>
      <use xlink:href="#DejaVuSans-20" transform="translate(495.751953 0)"/>
      <use xlink:href="#DejaVuSans-70" transform="translate(527.539062 0)"/>
      <use xlink:href="#DejaVuSans-65" transform="translate(591.015625 0)"/>
      <use xlink:href="#DejaVuSans-72" transform="translate(652.539062 0)"/>
      <use xlink:href="#DejaVuSans-63" transform="translate(691.402344 0)"/>
      <use xlink:href="#DejaVuSans-65" transform="translate(746.382812 0)"/>
      <use xlink:href="#DejaVuSans-6e" transform="translate(807.90625 0)"/>
      <use xlink:href="#DejaVuSans-74" transform="translate(871.285156 0)"/>
      <use xlink:href="#DejaVuSans-69" transform="translate(910.494141 0)"/>
      <use xlink:href="#DejaVuSans-6c" transform="translate(938.277344 0)"/>
      <use xlink:href="#DejaVuSans-65" transform="translate(966.060547 0)"/>
      <use xlink:href="#DejaVuSans-73" transform="translate(1027.583984 0)"/>
     </g>
    </g>
    <g id="line2d_20">
     <path d="M 485.404688 232.0975 
L 495.404688 232.0975 
L 505.404688 232.0975 
" style="fill: none; stroke-dasharray: 5.55,2.4; stroke-dashoffset: 0; stroke: #000000; stroke-width: 1.5"/>
    </g>
    <g id="text_21">
     <!-- 2nd and 98th percentiles -->
     <g transform="translate(513.404688 235.5975) scale(0.1 -0.1)">
      <defs>
       <path id="DejaVuSans-39" d="M 703 97 
L 703 672 
Q 941 559 1184 500 
Q 1428 441 1663 441 
Q 2288 441 2617 861 
Q 2947 1281 2994 2138 
Q 2813 1869 2534 1725 
Q 2256 1581 1919 1581 
Q 1219 1581 811 2004 
Q 403 2428 403 3163 
Q 403 3881 828 4315 
Q 1253 4750 1959 4750 
Q 2769 4750 3195 4129 
Q 3622 3509 3622 2328 
Q 3622 1225 3098 567 
Q 2575 -91 1691 -91 
Q 1453 -91 1209 -44 
Q 966 3 703 97 
z
M 1959 2075 
Q 2384 2075 2632 2365 
Q 2881 2656 2881 3163 
Q 2881 3666 2632 3958 
Q 2384 4250 1959 4250 
Q 1534 4250 1286 3958 
Q 1038 3666 1038 3163 
Q 1038 2656 1286 2365 
Q 1534 2075 1959 2075 
z
" transform="scale(0.015625)"/>
      </defs>
      <use xlink:href="#DejaVuSans-32"/>
      <use xlink:href="#DejaVuSans-6e" transform="translate(63.623047 0)"/>
      <use xlink:href="#DejaVuSans-64" transform="translate(127.001953 0)"/>
      <use xlink:href="#DejaVuSans-20" transform="translate(190.478516 0)"/>
      <use xlink:href="#DejaVuSans-61" transform="translate(222.265625 0)"/>
      <use xlink:href="#DejaVuSans-6e" transform="translate(283.544922 0)"/>
      <use xlink:href="#DejaVuSans-64" transform="translate(346.923828 0)"/>
      <use xlink:href="#DejaVuSans-20" transform="translate(410.400391 0)"/>
      <use xlink:href="#DejaVuSans-39" transform="translate(442.1875 0)"/>
      <use xlink:href="#DejaVuSans-38" transform="translate(505.810547 0)"/>
      <use xlink:href="#DejaVuSans-74" transform="translate(569.433594 0)"/>
      <use xlink:href="#DejaVuSans-68" transform="translate(608.642578 0)"/>
      <use xlink:href="#DejaVuSans-20" transform="translate(672.021484 0)"/>
      <use xlink:href="#DejaVuSans-70" transform="translate(703.808594 0)"/>
      <use xlink:href="#DejaVuSans-65" transform="translate(767.285156 0)"/>
      <use xlink:href="#DejaVuSans-72" transform="translate(828.808594 0)"/>
      <use xlink:href="#DejaVuSans-63" transform="translate(867.671875 0)"/>
      <use xlink:href="#DejaVuSans-65" transform="translate(922.652344 0)"/>
      <use xlink:href="#DejaVuSans-6e" transform="translate(984.175781 0)"/>
      <use xlink:href="#DejaVuSans-74" transform="translate(1047.554688 0)"/>
      <use xlink:href="#DejaVuSans-69" transform="translate(1086.763672 0)"/>
      <use xlink:href="#DejaVuSans-6c" transform="translate(1114.546875 0)"/>
      <use xlink:href="#DejaVuSans-65" transform="translate(1142.330078 0)"/>
      <use xlink:href="#DejaVuSans-73" transform="translate(1203.853516 0)"/>
     </g>
    </g>
   </g>
  </g>
 </g>
 <defs>
  <clipPath id="pc4e88bae8e">
   <rect x="90" y="51.84" width="558" height="332.64"/>
  </clipPath>
 </defs>
</svg>
